<svg xmlns="http://www.w3.org/2000/svg" class="league" fill="none" viewBox="0 0 30 32"><g fill="#C28F2C"><path d="M1.806 9.75A14.477 14.477 0 0 0 0 16.768c0 2.541.655 4.933 1.806 7.02V9.75ZM15 2.022a15.36 15.36 0 0 0-3.531.414v2.321A12.992 12.992 0 0 1 15 4.267c7.022 0 12.715 5.58 12.715 12.463 0 3.1-1.158 5.936-3.069 8.116l-.362 1.272-.803 2.815c3.937-2.657 6.521-7.113 6.521-12.163C30 8.624 23.284 2.022 15 2.022Z"/><path d="M11.469 24.42h11.756c1.947-2 3.146-4.707 3.146-7.69 0-6.155-5.09-11.144-11.371-11.144-1.233 0-2.418.196-3.531.55V24.42Z"/><path d="M10.109 0H1.55l1.616 3.298v25.406L1.55 32h19.642l1.782-6.243H10.109V0Z"/></g></svg>
