<svg fill="none" xmlns="http://www.w3.org/2000/svg" viewBox="0 0 163 162"><path d="M114.108 162.001c-.114-.146-.276-.113-.438-.13-6.82-.388-13.511-1.587-20.104-3.321-15.3414-4.05-29.6622-10.432-42.9138-19.164-4.0338-2.657-7.8732-5.557-11.3562-8.926-.6642-.648-1.3284-1.313-1.8306-2.106-.1782-.276-.4698-.6-.243-.924.243-.356.6804-.178 1.0044-.065.8748.276 1.6686.697 2.4624 1.151 4.293 2.511 8.6508 4.908 13.1058 7.111 7.533 3.71 15.2442 6.966 23.2794 9.461 4.131 1.28 8.3268 2.333 12.5874 3.013 1.5066.243 3.0294.389 4.5522.47.81.049 1.6038-.048 2.3976-.146.2268-.032.4536-.097.6804-.178.8424-.324.9558-.794.3402-1.442-.2592-.259-.5508-.469-.8586-.664-.972-.599-2.0412-1.02-3.1104-1.377-15.1956-5.087-29.3544-12.247-42.5412-21.368-7.6626-5.297-14.8392-11.194-21.3354-17.901-4.941-5.086-9.4122-10.5458-13.0086-16.7018-2.187-3.726-3.9852-7.6302-5.022-11.8746-.6642-2.7378-.9882-5.508-.6804-8.3106.486-4.5684 2.4624-8.343 6.075-11.2428 2.9322-2.349 6.2856-3.7584 9.8982-4.6494 2.4462-.5994 4.9248-.9072 7.452-.9882 3.6936-.1134 7.3386.2592 10.935 1.1502.5508.1296 1.1016.2754 1.6038.5508.1296.081.2754.162.2592.3402-.0162.1944-.1944.2268-.3402.2592-.5184.0972-1.0206.0324-1.539 0-4.779-.324-9.5256-.1782-14.1426 1.3284-2.4138.7938-4.6332 1.9278-6.4638 3.7422-1.8306 1.8306-2.835 4.05-3.2076 6.5772-.4536 3.159.1458 6.1884 1.1826 9.153 1.4418 4.1472 3.6612 7.8894 6.2046 11.4372 3.7908 5.2812 8.2134 10.0116 13.0248 14.369 9.8334 8.943 20.7036 16.395 32.4486 22.551 7.0146 3.677 14.337 6.593 22.0158 8.57 5.638 1.458 11.356 2.349 17.204 2.089 3.273-.145 6.48-.712 9.477-2.138 3.5-1.685 5.832-4.325 6.723-8.149.584-2.511.357-4.989-.291-7.452-.891-3.369-2.463-6.415-4.277-9.363-1.053-1.717-2.219-3.37-3.418-4.99-.324-.437-.648-.875-.891-1.361-.081-.178-.178-.372-.211-.5828-.065-.3564.097-.5022.438-.405.356.0972.664.2916.972.486 1.085.7128 2.073 1.5548 3.013 2.4458 3.71 3.516 6.804 7.517 9.525 11.843.827 1.312 1.588 2.673 2.317 4.033.308.567.616 1.134 1.037 1.637.162.194.324.405.518.567.762.68 1.361.502 1.669-.486.21-.697.243-1.426.194-2.155-.178-2.495-.956-4.811-1.879-7.096-1.847-4.6-4.406-8.78-7.322-12.7814-4.277-5.8482-9.218-11.1132-14.483-16.0866-.778-.729-1.507-1.4904-2.122-2.3652-.162-.2268-.422-.5022-.195-.7614.227-.2754.551-.0486.794.0324.956.3402 1.831.8586 2.689 1.377 4.52 2.673 8.716 5.7996 12.62 9.2826 6.788 6.0588 12.636 12.9116 17.253 20.7846 2.867 4.892 5.152 10.044 6.448 15.584.777 3.321 1.198 6.691.972 10.093-.616 9.185-4.893 16.151-12.831 20.833-3.612 2.122-7.533 3.402-11.615 4.245-2.155.437-4.342.712-6.529.923-.146.016-.324-.049-.389.162h-9.784ZM.302556.341024c-.0972-.0162-.1944-.0162-.2916005-.0324.0648-.0972-.1457995-.3239996.1620005-.30779964.1782.01620004.3564 0 .550799 0H161.298c.178 0 .357.01620004.551 0 .308-.01619996.097.21059964.162.30779964l-.081-.0162-.081.0162c-.308-.30779963-.697-.162-1.037-.162-53.152.0162-106.2718.0162-159.40784.0162H.707556c-.162 0-.3078.0324-.405.1782Z" fill="#FFB60D"/><path d="M.302246.341124c.0972-.1458.243-.1782.405-.1782H160.779c.341 0 .729-.1457997 1.037.162 0 .3078-.21.5346-.34.777596-6.334 10.96738-12.668 21.93478-18.97 32.90218-.292.5022-.616.648-1.167.648-13.138-.0162-26.26-.0162-39.398-.0162-1.264 0-1.118-.162-1.118 1.1178v84.0137c0 .939.243 1.085-1.0528.939-4.779-.518-9.315-1.928-13.7376-3.71-8.5536-3.434-16.4916-7.954-23.814-13.575-.0648-.049-.1134-.097-.1782-.146-.5184-.308-.6642-.745-.6642-1.345.0162-22.0803.0162-44.1447.0162-66.2253 0-1.1988.162-1.0692-1.0692-1.0692-13.1382 0-26.2602 0-39.3984.0162-.6642 0-1.0044-.2106-1.3284-.7776C13.2784 22.8915 6.94425 11.9241.610046.956724c-.1134-.1944-.2592-.3726-.3078-.6156Z" fill="#FFB60D"/></svg>