<svg xmlns="http://www.w3.org/2000/svg" version="1.1" xml:space="preserve" viewBox="0 0 40 40"><style>.st0{fill:#4ac5f2}</style><path class="st0" d="m23.4 28.9 2.5 6.3H30l1.8-6.3z"/><path class="st0" d="M19.2 23.1c-1.5-3.7-3.3-8.6-2.8-9 .2-.2 1.2.7 2.7 3.3.2.3.1-.1.1-.3V3h-5.9c-.3 0-.4 0-.4.1-.1.1 0 .2 0 .4 1.9 5.7 2.7 8.9 2.3 9.2-.2.2-1.2-1.3-2.8-4.7C10 2.8 8.5-.1 8.3.1 8 .3 9.7 5.6 14 17.5c1.4 3.9 1.9 5.9 1.6 6.1-.3.2-1.1-1.1-2.3-3.5-1.4-2.8-2-3.9-2.2-3.9-.2.1.3 1.9 1.2 4.5 1.3 4.1 3.5 11.2 3.1 11.5-.2.1-.9-1-2.3-4.1-.3-.7-.5-1-.5-1s-.1.1-.1.3V32l-1.6 3.3h7.4c-1.9-5.5-2.5-8-2.2-8.1.4-.2 2 3 4 8.1 1.9.9 4.3 3.2 5.7 4.5.3.3.4.3.3 0-1.7-4-3.9-9.3-6.9-16.7z"/></svg>
