<svg class="_4f3f9" xmlns="http://www.w3.org/2000/svg" viewBox="0 0 54 37"><g clip-path="url(#a)" fill="#7633fe"><path d="m37.75 29.018-6.912-6.352-.134-.358s-1.652-1.465-2.57-2.35c3.044-1.137 11.748-4.313 11.523-8.112-.125-2.11-3.37-2.98-5.57-3.133-2.713-.189-6.033.063-8.99.441A908.687 908.687 0 0 1 29.55.847c.19-.334.195-.516-.095-.133-1.434 1.932-3.789 5.073-5.92 7.908-.248.331-.483.613-.7.858-2.202.348-3.994.726-4.847.967-.056.016-.05.035.008.028a83.054 83.054 0 0 1 4.151-.3 4.89 4.89 0 0 1-.874.651c-.21.117-.38.296-.482.513-.622 1.322-6.149 12.694-7.25 15.32-.353-2.153-.759-5.48-.737-6.816 0-.31.083-.675-.148-.24-.133.245-.47.825-.47.825l-.454.064c-1.312 1.367-3.327 3.833-6.694 7.662 0 0 3.186-8.218 3.615-9.187.973-2.16-.328-.35.854-3.094.186-.43 1.72-4.491 2.152-5.628.154-.4.099-.321-.296.198-.624.818-2.04 2.674-2.41 3.045-.297.294-2.057 4.465-2.187 4.793-.154.39-.247.384-.151-.014.175-.723.948-3.595 1.052-3.952.08-.281-.317.133-.598.883-.213.567-.952 2.595-1.607 4.536C4.917 21.414.133 36.074 0 36.5c.67-.533 1.919-2.345 2.53-2.513.45-.12.512-.65 1.168-1.41 1.658-1.921 2.76-3.371 7.408-8.295.566 3.62 1.24 9.65 1.24 9.65.427-.522.779-1.102 1.044-1.72.356-.897.643-.615.767-.964 1.071-3 4.553-9.453 6.854-14.178.85-1.743 2.207-4.36 3.591-6.986 5.567-.134 11.897.211 11.896 2.166-.007 2.202-7.588 5.802-9.67 6.641l-.16-.16c.937-2.085 1.992-4.166 2.15-4.483.042-.087.01-.133-.058-.187-.068-.055-.357-.255-.449-.33-.09-.074-.084-.103-.017-.198.205-.291.522-.632.66-.798.114-.134.056-.126-.064-.114-.74.079-2.608.336-5.284 1.217-.183.06-.174.094.027.058.787-.134 3.495-.666 3.015.375-.162.349-.79 1.666-1.74 3.705-.559-.038-.6.213-.887.296-.206.059-1.178-.206-.803.165.284.281.445.446.999 1.024-1.055 2.296-2.703 5.952-2.703 5.952-.134.3.277.36.567.853.326.555.494 1.57.771.953.351-.779 2.194-5.151 2.855-6.417 0 0 2.167 1.98 2.834 2.561 1.396 1.22 2.573 2.295 3.715 3.15.789.59 1 .628-.126-.424-1.874-1.752-1.607-1.73 1.038.312.362.278.708.532 1.058.563.268.028.401.069 1.182.64.585.428 1 .743 2.009 1.543 1.314 1.054 1.573 1.011.333-.129Z"/><path d="M53.961 6.918c-3.648.032-6.904.297-11.815.915-.21.026-.21.157-.17.294.055.186.552.674.597.932.098.533.856.411.678.868-.178.457-1.908 4.76-1.908 4.76-.686.123-1.499.356-1.52.42-.076.168.736.753.76 1.363-.65 1.552-.946 2.46-1.072 2.828-.536 1.465-1.36 3.664-2 3.713-.4.046-.951.104-1.123.134-.026.343.521.416.592.42a.179.179 0 0 1 .156.18c.009.068.026.18.184.172.402-.02.83-.05 1.23-.075l-.366.095c-.862.222-.864.226-.884.266l-.013.024c.028.162.268.309.339.337.332.154.48.207.823.156h.016c2.646-.441 5.315-.966 7.839-1.786.456-.125.962-.477 1.339-.675.267-.133.303-.16.446-.237.022-.012.096-.052.361-.385.07-.081.048-.24-.076-.231l-4.589.693a23.006 23.006 0 0 1-3.481.6s.905-2.47 1.122-3.056c.42-1.141 1.07-3.105 1.07-3.105 1.768-.213 4.152-.594 5.1-.95.245-.092.472-.227.67-.399.213-.179.437-.346.669-.5a7 7 0 0 1 .217-.114c.873-.446 1.197-.639 1.238-.736l.014-.04-.022-.028c-.044-.067-.22-.035-.621.01-1.705.196-4.794.487-6.44.7.386-1.008 1.7-4.438 2.041-5.104.082-.46.75-.476.75-.476 1.951-.21 3.767-.387 4.889-.476.468-.037.644-.518 1.37-.591.952-.101 1.842-.917 1.59-.916Z"/></g><defs><clipPath id="a"><path fill="#fff" transform="translate(0 .5)" d="M0 0h54v36H0z"/></clipPath></defs></svg>
